# xmcd
#
# Track frame offsets:
#	150
#	15602
#	33786
#	49250
#	64315
#	85498
#	103307
#	113585
#	128871
#	146895
#	165943
#	177946
#	192860
#	212286
#	227939
#	245382
#	267917
#
# Disc length: 3807 seconds
#
# Revision: 1
# Processed by: cddbd v1.5.1PL0 Copyright (c) Steve Scherf et al.
# Submitted via: audiograbber 1.83.01
#
DISCID=eb0edd11
DTITLE=Various Artist - Nothin' But Skillz
DYEAR=2005
DGENRE=Hip-Hop
TTITLE0=MC Tia - Like Whuut! (featuring Lyrical)
TTITLE1=AB - Put Your Money Where Your Mouth Is
TTITLE2=St-one - One Of A Kind (featuring Paulina)
TTITLE3=Digableistic - Give It Up
TTITLE4=David Lillo - Like That
TTITLE5=Alibi - Me My G'z
TTITLE6=Mazy - Mad Gurl
TTITLE7=Camilo - Still I (featuring Earmax)
TTITLE8=Jeremias - Räkna Med Mig
TTITLE9=Jah Rhythm - Survival
TTITLE10=Tank Marwin - Caught With My Pants Down
TTITLE11=Furioso - Förstår Ni Det
TTITLE12=Ragin Goblins - Baccara
TTITLE13=Obnoxiouz - Actual Pain
TTITLE14=Lyrical, Ami and ADM - Mediocre
TTITLE15=Run-In Camp - Soul Jivin'
TTITLE16=Meldeah - Pearl
EXTD=
EXTT0=
EXTT1=
EXTT2=
EXTT3=
EXTT4=
EXTT5=
EXTT6=
EXTT7=
EXTT8=
EXTT9=
EXTT10=
EXTT11=
EXTT12=
EXTT13=
EXTT14=
EXTT15=
EXTT16=
PLAYORDER=
